<?xml version="1.0" standalone="no"?>
<!DOCTYPE svg PUBLIC "-//W3C//DTD SVG 20010904//EN"
 "http://www.w3.org/TR/2001/REC-SVG-20010904/DTD/svg10.dtd">
<svg version="1.0" xmlns="http://www.w3.org/2000/svg"
 width="320.000000pt" height="318.000000pt" viewBox="0 0 320.000000 318.000000"
 preserveAspectRatio="xMidYMid meet">
<metadata>
Created by potrace 1.16, written by Peter Selinger 2001-2019
</metadata>
<g transform="translate(0.000000,318.000000) scale(0.100000,-0.100000)"
fill="#000000" stroke="none">
<path d="M1400 3144 c-88 -11 -244 -49 -343 -85 -435 -155 -783 -508 -931
-945 -68 -201 -81 -283 -81 -529 0 -240 8 -297 67 -490 151 -497 552 -885
1058 -1026 111 -31 311 -59 425 -59 105 0 316 28 413 56 504 140 894 509 1062
1004 98 286 107 646 24 943 -156 561 -581 968 -1154 1103 -90 22 -134 26 -305
29 -110 2 -216 1 -235 -1z m307 -60 c14 -4 23 -17 28 -40 7 -39 16 -41 89 -19
62 19 156 19 181 1 18 -13 18 -15 2 -39 -34 -52 -25 -61 55 -53 59 5 83 3 135
-15 35 -11 63 -24 61 -28 -2 -4 -16 -33 -33 -64 -16 -31 -26 -59 -22 -63 3 -4
44 -10 89 -15 46 -4 84 -8 86 -8 1 -1 6 -11 11 -23 11 -30 -7 -66 -55 -107
l-36 -32 23 -25 c13 -14 42 -34 64 -45 34 -16 36 -18 13 -15 -16 2 -28 1 -28
-1 0 -3 18 -35 40 -72 66 -110 53 -119 -43 -31 -36 33 -70 60 -76 60 -12 0 -8
-26 15 -95 11 -33 12 -58 1 -44 -2 2 -32 42 -67 88 -59 78 -64 83 -94 78 -17
-3 -39 -8 -48 -12 -25 -10 -23 11 7 63 17 30 20 42 10 42 -16 0 -75 -70 -99
-117 -20 -40 -29 -45 -61 -37 -19 5 -25 12 -25 35 0 37 -10 37 -44 -2 -28 -32
-36 -33 -40 -5 -1 9 -6 15 -12 14 -5 -2 -8 -8 -6 -15 4 -19 -18 -26 -97 -29
-256 -10 -540 -49 -681 -93 -36 -12 -75 -21 -88 -21 -25 0 -79 -76 -133 -187
-16 -35 -32 -63 -34 -63 -2 0 -3 44 -1 98 2 53 2 88 -1 77 -3 -11 -37 -53 -75
-94 -38 -41 -96 -115 -129 -165 -32 -49 -59 -85 -59 -79 0 9 60 161 87 221 8
19 -13 14 -79 -19 l-62 -31 19 28 c10 16 48 67 84 113 36 46 75 95 86 110 l19
26 -21 -18 c-16 -14 -42 -20 -98 -22 -42 -2 -83 -9 -91 -16 -8 -6 -17 -10 -20
-7 -5 6 123 115 184 157 l33 23 -38 34 c-35 30 -36 33 -15 34 13 0 36 -7 52
-15 29 -15 53 -4 34 15 -16 16 -128 40 -157 34 -15 -3 -27 -3 -27 1 0 10 89
45 170 67 41 11 78 25 82 31 10 17 -2 29 -17 17 -10 -8 -18 -4 -35 20 -12 16
-18 35 -14 41 4 7 3 9 -4 5 -6 -3 -14 -2 -17 4 -4 6 -1 9 6 8 6 -2 14 3 16 10
3 7 -3 12 -14 12 -15 0 -14 3 6 19 35 27 96 43 173 47 85 4 108 15 108 55 0
18 -4 28 -10 24 -5 -3 -10 -16 -10 -27 0 -12 -3 -19 -6 -16 -3 3 -2 22 1 41 6
31 14 38 65 61 72 33 112 33 166 1 41 -24 60 -22 49 7 -11 29 49 76 115 88 53
10 55 9 85 -20 l32 -31 37 22 c68 40 149 57 203 43z m193 -761 c57 -7 65 -10
64 -29 0 -19 4 -21 30 -17 30 4 30 4 11 -11 -11 -8 -25 -16 -31 -16 -8 0 -11
-27 -9 -87 2 -57 1 -72 -3 -44 -4 25 -13 46 -21 49 -9 3 -11 -2 -8 -14 12 -39
11 -194 -1 -206 -7 -7 -12 -21 -12 -33 -1 -16 -2 -17 -9 -5 -5 8 -11 71 -15
139 -7 146 -28 190 -56 121 -13 -31 -30 -40 -30 -16 0 21 -21 31 -31 15 -5 -8
-9 -27 -9 -44 0 -28 -1 -28 -17 -12 -15 15 -16 20 -5 38 8 12 11 24 8 27 -3 3
-6 0 -6 -7 0 -7 -5 -9 -12 -5 -7 4 -8 3 -4 -4 4 -7 2 -12 -5 -12 -8 0 -6 -8 4
-24 25 -38 30 -89 13 -130 -16 -38 -13 -62 5 -50 5 3 7 9 4 14 -3 5 0 12 6 16
8 5 9 -8 4 -47 -4 -30 -8 -62 -8 -71 -1 -10 -6 -18 -12 -18 -5 0 -4 -4 4 -9
10 -7 8 -9 -10 -9 -13 0 -89 -5 -169 -11 -80 -6 -237 -14 -350 -17 -193 -6
-206 -6 -222 12 -27 32 -38 93 -38 219 0 182 16 218 115 248 52 16 183 41 295
56 75 10 434 6 530 -6z m-1139 -630 c17 -43 44 -119 59 -170 14 -51 29 -96 33
-99 4 -4 7 42 8 102 1 160 1 158 82 162 37 2 65 7 63 11 -11 16 120 12 160 -6
l39 -17 -56 -7 c-31 -4 -72 -18 -93 -29 -32 -20 -36 -26 -36 -63 1 -23 7 -55
14 -72 l14 -30 -5 40 c-6 53 10 93 43 105 15 6 28 9 30 7 2 -2 -2 -29 -8 -60
-10 -48 -10 -61 5 -91 31 -67 110 -90 164 -49 35 25 42 53 14 53 -35 0 -33 18
4 31 19 7 35 18 35 24 1 5 12 -3 25 -20 28 -34 32 -21 10 32 -8 19 -15 37 -15
39 0 11 23 0 80 -37 37 -23 60 -34 56 -25 -3 9 -9 23 -13 33 -4 10 -2 14 4 10
16 -10 43 36 32 54 -6 10 -9 10 -9 2 0 -7 -12 -13 -27 -14 -25 0 -26 -1 -8
-10 14 -6 4 -8 -35 -4 -55 5 -167 54 -220 95 l-25 20 43 0 c30 0 53 -7 75 -24
18 -13 46 -31 62 -41 32 -18 26 -12 -35 36 l-25 20 90 -7 c102 -7 105 -8 105
-35 0 -10 5 -19 10 -19 6 0 10 9 10 20 0 18 7 20 75 20 41 0 75 -4 75 -9 0 -5
-5 -11 -10 -13 -14 -4 32 -71 62 -90 23 -15 27 -14 72 14 27 16 50 28 52 25 2
-2 -2 -17 -8 -34 -6 -16 -8 -39 -4 -49 7 -16 10 -14 27 19 22 43 34 42 43 -4
16 -82 119 -117 177 -60 31 32 38 61 14 61 -8 0 -15 5 -15 10 0 6 9 10 20 10
16 0 20 7 20 36 0 31 3 35 23 32 19 -3 23 -11 27 -53 6 -61 18 -47 26 32 6 56
5 59 -23 76 -19 12 -22 16 -8 13 11 -3 37 -8 58 -12 23 -4 42 -14 49 -27 15
-28 3 -143 -18 -175 -19 -30 -73 -85 -96 -98 -8 -5 -19 -22 -25 -39 -10 -29
-11 -30 -69 -26 -70 4 -64 -10 9 -24 51 -10 52 -11 53 -46 0 -19 4 -41 8 -47
15 -24 -33 -27 -88 -6 -28 11 -17 -12 12 -25 53 -24 74 -42 64 -54 -6 -7 -12
-23 -14 -37 -2 -19 -9 -25 -32 -27 -38 -3 -43 -9 -22 -32 17 -19 17 -21 -15
-60 -18 -23 -35 -41 -39 -41 -4 0 -15 9 -25 20 -25 27 -41 25 -57 -7 -16 -34
-22 -35 -335 -58 -192 -15 -235 -16 -248 -5 -11 9 -19 10 -27 2 -33 -33 39
-46 172 -29 58 8 123 12 145 10 22 -1 75 -3 118 -4 42 -1 75 -4 73 -6 -7 -8
-208 -50 -268 -58 -32 -3 -60 -11 -63 -16 -3 -5 19 -21 49 -35 49 -23 78 -56
63 -71 -3 -3 -34 -8 -69 -13 -78 -9 -137 5 -213 51 -74 44 -185 146 -185 169
0 10 16 42 36 71 l36 54 -36 -34 c-20 -19 -38 -43 -42 -53 -3 -10 -11 -18 -19
-18 -19 0 -75 88 -68 108 9 25 84 101 116 119 16 8 27 17 24 19 -11 11 -71
-29 -116 -77 l-48 -50 -23 55 -22 55 20 28 c29 40 51 59 113 93 30 16 48 30
41 30 -25 0 -95 -42 -141 -85 l-46 -43 -27 81 c-15 45 -32 101 -38 125 -10 37
-14 42 -40 42 -17 0 -31 6 -31 13 -1 6 -2 37 -3 67 -1 43 -11 74 -44 140 -24
47 -54 95 -68 108 -29 25 -26 52 5 52 14 0 27 -19 52 -77z m-54 -19 c-4 -4 3
-24 15 -45 21 -37 21 -43 9 -133 -10 -74 -11 -98 -1 -117 21 -40 61 -78 91
-84 15 -4 33 -13 40 -21 17 -21 -24 -19 -59 3 l-27 17 24 -27 c13 -14 28 -24
33 -21 13 8 58 -36 58 -57 0 -25 -27 -44 -44 -30 -31 26 -156 256 -156 288 0
10 -5 25 -10 33 -8 11 -9 7 -4 -15 7 -28 6 -29 -11 -15 -10 8 -24 15 -32 15
-8 0 -30 28 -49 63 -29 52 -31 60 -14 50 11 -7 27 -27 35 -45 16 -32 55 -64
55 -44 0 5 -4 13 -10 16 -5 3 -10 11 -10 17 0 6 9 3 20 -7 20 -18 20 -17 20
54 0 66 11 111 27 111 3 0 3 -3 0 -6z m247 -601 c23 -66 21 -75 -10 -67 -26 7
-26 7 -9 -19 19 -30 13 -47 -16 -47 -18 0 -20 -4 -14 -31 6 -25 3 -31 -12 -35
-16 -4 -18 -13 -15 -57 4 -85 13 -121 34 -144 12 -12 18 -29 15 -37 -4 -9 -3
-16 2 -16 5 0 14 -13 21 -30 10 -25 10 -34 -4 -55 -21 -32 -20 -38 3 -25 31
16 51 12 62 -14 10 -21 6 -33 -26 -85 -21 -34 -41 -61 -45 -61 -9 0 -20 36
-20 67 0 35 -18 36 -36 2 l-16 -33 -14 25 c-7 13 -16 41 -19 62 -8 42 -20 41
-30 -3 -4 -17 -10 -30 -15 -30 -12 0 -19 24 -26 98 -4 37 -9 61 -11 55 -6 -18
-30 -16 -37 3 -9 25 -7 83 5 107 10 21 10 21 -5 3 -15 -19 -16 -18 -16 15 0
20 3 39 7 43 4 4 6 22 5 39 -2 24 3 38 22 55 14 12 26 31 26 41 0 11 16 37 36
58 20 21 41 50 46 65 5 14 23 33 39 41 17 8 30 18 30 23 -1 19 11 44 19 39 4
-3 15 -26 24 -52z"/>
<path d="M1707 2262 c-10 -10 -17 -24 -17 -31 0 -9 -6 -11 -17 -6 -36 15 -113
17 -143 5 -17 -7 -44 -30 -61 -51 -34 -43 -114 -208 -105 -216 3 -4 6 -1 6 6
0 7 4 9 10 6 5 -3 12 5 16 19 11 47 28 46 50 0 l21 -44 -36 0 c-39 0 -69 -14
-53 -24 21 -13 257 -11 288 2 33 14 74 75 74 111 0 35 -36 96 -65 109 -70 32
-145 -5 -145 -71 0 -48 21 -71 63 -71 51 0 70 19 65 67 -4 39 -4 39 14 17 10
-12 18 -37 18 -55 0 -45 -34 -70 -106 -79 -50 -6 -60 -4 -81 16 -47 44 -51
124 -10 180 33 44 81 52 195 33 32 -6 42 -4 42 6 0 7 10 23 21 36 18 18 20 25
9 38 -17 20 -33 19 -53 -3z"/>
<path d="M1625 1060 c-3 -5 -21 -10 -38 -10 -59 0 -77 -10 -77 -41 0 -37 58
-96 103 -104 49 -10 100 15 120 58 23 47 22 84 -2 97 -25 13 -98 13 -106 0z"/>
</g>
</svg>
